# xmcd CD database file generated by Grip 2.95
# 
# Track frame offsets:
#       150
#       12715
#       27885
#       43380
#       57262
#       68670
#       81207
#       93717
#       106017
#       119577
#       131850
#       142467
#       159682
#       174157
#       187732
#       199327
#       207922
#       222682
#       232302
#       254812
# 
# Disc length: 3711 seconds
# 
# Revision: 3
# Processed by: cddbd v1.4b42PL0 Copyright (c) Steve Scherf et al.
# Submitted via: Grip 2.95
# 
DISCID=420e7d14
DTITLE=The Platters - Only their best for you
DYEAR=1900
DGENRE=
TTITLE0=Only  you
TTITLE1=Thre great pretender
TTITLE2=My prayer
TTITLE3=Harbor lights
TTITLE4=Smoke gets in your eyes
TTITLE5=Twilight time
TTITLE6=I love you 1,000 times
TTITLE7=With this ring
TTITLE8=Im' sorry
TTITLE9=The magic touch
TTITLE10=Red sails in the sunset
TTITLE11=If i had a love
TTITLE12=I love you because
TTITLE13=Alone in the night
TTITLE14=Heaven on earth
TTITLE15=Sweet sweet lovin'
TTITLE16=Why
TTITLE17=Doesn't it ring a bell
TTITLE18=Unchained melody
TTITLE19=Track 20 - My way
EXTD=
EXTT0=
EXTT1=
EXTT2=
EXTT3=
EXTT4=
EXTT5=
EXTT6=
EXTT7=
EXTT8=
EXTT9=
EXTT10=
EXTT11=
EXTT12=
EXTT13=
EXTT14=
EXTT15=
EXTT16=
EXTT17=
EXTT18=
EXTT19=
PLAYORDER=
